<svg xmlns="http://www.w3.org/2000/svg" width="127.352" height="31.13" viewBox="0 0 127.352 31.13"><g id="clover-network-inc-vector-logo" transform="translate(-20.914 -248.4)"><path id="Path_31722" data-name="Path 31722" d="M201.812,295.675a10.4,10.4,0,0,1-8.149,4.032c-5.433,0-9.762-3.884-9.762-9.019a9.081,9.081,0,0,1,2.865-6.536,9.205,9.205,0,0,1,6.706-2.483,10.4,10.4,0,0,1,8.149,4.032l-3.608,2.568a5.368,5.368,0,0,0-4.52-2.61,5.077,5.077,0,0,0-5.072,5.03,5.192,5.192,0,0,0,5.284,5.03,5.7,5.7,0,0,0,4.605-2.441Z" transform="translate(-128.397 -26.201)" fill="#63666a"></path><rect id="Rectangle_7241" data-name="Rectangle 7241" width="4.52" height="24.724" transform="translate(75.431 248.4)" fill="#63666a"></rect><path id="Path_31723" data-name="Path 31723" d="M319.183,295.774a5.383,5.383,0,0,0,5.433-5.2,5.44,5.44,0,0,0-10.866,0,5.382,5.382,0,0,0,5.433,5.2m.021-14.219a9.319,9.319,0,0,1,9.762,9.019,9.319,9.319,0,0,1-9.762,9.019c-5.433,0-9.8-3.926-9.8-9.019-.021-5.072,4.329-9.019,9.8-9.019" transform="translate(-227.262 -26.11)" fill="#63666a"></path><path id="Path_31724" data-name="Path 31724" d="M398.1,283.3h5.306l4.308,9.253,4.648-9.253h4.924l-9.571,18.378Z" transform="translate(-297.138 -27.493)" fill="#63666a"></path><path id="Path_31725" data-name="Path 31725" d="M498.761,288.269a4.524,4.524,0,0,0-4.2-2.8,4.864,4.864,0,0,0-4.478,2.8Zm2.907,9.1A10.456,10.456,0,0,1,495,299.708c-5.433,0-9.8-3.926-9.8-9.019a9.029,9.029,0,0,1,9.4-9.019,8.678,8.678,0,0,1,8.977,9v1.295h-13.9a5.444,5.444,0,0,0,5.284,3.884,5.146,5.146,0,0,0,3.969-1.7Zm4.1-7.767c0-4.138,3.162-7.6,8.255-7.6v4.053a3.52,3.52,0,0,0-2.844,1.167,3.7,3.7,0,0,0-.934,2.929v9.168h-4.478Z" transform="translate(-365.754 -26.202)" fill="#63666a"></path><path id="Path_31726" data-name="Path 31726" d="M34.96,260.279a7.024,7.024,0,1,0-7.025,6.982H34.96Zm2.037,0a7.024,7.024,0,1,1,7.025,6.982H37Zm0,15.98a7.024,7.024,0,1,0,7.025-6.982H37Zm-9.041,5.008a5.04,5.04,0,0,0,5.051-5.008v-5.008H27.957a5.008,5.008,0,1,0,0,10.017Zm7-5.008a7.024,7.024,0,1,1-7.025-6.982H34.96Z" transform="translate(0 -3.793)" fill="#43b02a"></path></g></svg>