<svg xmlns="http://www.w3.org/2000/svg" width="24" height="24" viewBox="0 0 24 24" fill="none"><mask id="mask0_66_6145" style="mask-type:luminance" maskUnits="userSpaceOnUse" x="0" y="0" width="24" height="24"><path d="M24 0H0V24H24V0Z" fill="white"></path></mask><g mask="url(#mask0_66_6145)"><mask id="mask1_66_6145" style="mask-type:luminance" maskUnits="userSpaceOnUse" x="3" y="1" width="18" height="22"><path d="M20.6199 1.5H3.37988V22.499H20.6199V1.5Z" fill="white"></path></mask><g mask="url(#mask1_66_6145)"><path d="M11.7729 1.70015L7.77988 7.87415C7.74611 7.92714 7.69654 7.96819 7.63819 7.9915C7.57983 8.01481 7.51563 8.01921 7.45464 8.00407C7.39365 7.98894 7.33895 7.95503 7.29827 7.90714C7.25758 7.85925 7.23296 7.79979 7.22788 7.73715V6.80015C7.22015 6.71414 7.18755 6.63225 7.13407 6.56444C7.08059 6.49664 7.00854 6.44586 6.9267 6.4183C6.84487 6.39074 6.75678 6.38758 6.67317 6.40922C6.58957 6.43085 6.51407 6.47635 6.45588 6.54015C4.51968 8.62915 3.42413 11.3602 3.37988 14.2082C3.37988 19.4782 7.15088 22.5002 12.2309 22.5002C13.3318 22.5511 14.4314 22.3746 15.4611 21.9817C16.4908 21.5888 17.4285 20.9879 18.2156 20.2165C19.0028 19.4451 19.6225 18.5198 20.0362 17.4982C20.4498 16.4767 20.6485 15.3809 20.6199 14.2792C20.6199 9.85515 16.2879 3.84915 12.3799 1.56015C12.2796 1.50311 12.1615 1.48584 12.0491 1.51177C11.9366 1.5377 11.8381 1.60494 11.7729 1.70015Z" fill="#EE4E1C"></path><path d="M17.4047 16.4069C17.3403 17.7553 16.7447 19.0234 15.7479 19.9338C14.7511 20.8442 13.4344 21.3228 12.0857 21.2649C10.7365 21.3236 9.41896 20.8453 8.42153 19.9349C7.4241 19.0244 6.82799 17.7559 6.76367 16.4069C6.76167 12.4019 12.0857 9.11792 12.0857 9.11792C12.0857 9.11792 17.4067 12.7029 17.4067 16.4039" fill="#FF9C1B"></path></g></g></svg>