<svg xmlns="http://www.w3.org/2000/svg" width="19" height="17" viewBox="0 0 19 17" fill="none"><mask id="mask0_66_6032" style="mask-type:luminance" maskUnits="userSpaceOnUse" x="0" y="0" width="19" height="17"><path d="M8.1755 0.740901L0.170505 14.8259C0.0592116 15.0215 0.0011008 15.2428 0.00196257 15.4678C0.00282434 15.6929 0.0626283 15.9137 0.175417 16.1085C0.288205 16.3032 0.450043 16.465 0.64481 16.5777C0.839577 16.6904 1.06048 16.7501 1.28551 16.7509L17.7055 16.8189C17.9337 16.8197 18.158 16.76 18.3556 16.6458C18.5531 16.5315 18.7168 16.3669 18.8299 16.1687C18.943 15.9705 19.0014 15.7458 18.9992 15.5176C18.9971 15.2894 18.9343 15.0659 18.8175 14.8699L10.4045 0.718901C10.2894 0.524642 10.1253 0.36405 9.92857 0.253225C9.73184 0.1424 9.50944 0.0852367 9.28366 0.0874651C9.05789 0.0896935 8.83666 0.151236 8.64216 0.265922C8.44766 0.380608 8.28673 0.544408 8.1755 0.740901Z" fill="white"></path></mask><g mask="url(#mask0_66_6032)"><path d="M-0.317748 0.00836009L-0.386719 16.8242L19.3281 16.9051L19.3971 0.0892214L-0.317748 0.00836009Z" fill="url(#paint0_linear_66_6032)"></path></g><path d="M9.46373 11.64H9.34373C9.17761 11.6392 9.0186 11.5725 8.90161 11.4546C8.78461 11.3366 8.7192 11.1771 8.71973 11.011L8.73873 6.33296C8.73952 6.16711 8.8061 6.00835 8.92385 5.89155C9.04159 5.77474 9.20088 5.70943 9.36673 5.70996H9.48373C9.56594 5.71036 9.64726 5.72694 9.72306 5.75876C9.79886 5.79058 9.86765 5.83703 9.9255 5.89543C9.98335 5.95384 10.0291 6.02307 10.0602 6.09917C10.0913 6.17528 10.1071 6.25676 10.1067 6.33896L10.0877 11.017C10.0872 11.1822 10.0213 11.3405 9.90432 11.4573C9.78738 11.574 9.62897 11.6397 9.46373 11.64Z" fill="#100F0C"></path><path d="M9.45008 14.9476H9.32908C9.16296 14.9468 9.00395 14.8801 8.88696 14.7622C8.76996 14.6443 8.70455 14.4847 8.70508 14.3186V14.1406C8.70588 13.9747 8.77242 13.8158 8.89014 13.6988C9.00785 13.5819 9.16714 13.5163 9.33308 13.5166H9.45508C9.53724 13.5169 9.61855 13.5333 9.69434 13.565C9.77013 13.5968 9.83893 13.6431 9.89679 13.7014C9.95466 13.7598 10.0005 13.8289 10.0316 13.905C10.0627 13.981 10.0785 14.0624 10.0781 14.1446V14.3256C10.0778 14.4078 10.0614 14.4891 10.0296 14.5649C9.99793 14.6407 9.95159 14.7095 9.89326 14.7673C9.83493 14.8252 9.76576 14.871 9.68972 14.9021C9.61367 14.9332 9.53224 14.948 9.45008 14.9476Z" fill="#100F0C"></path><defs><linearGradient id="paint0_linear_66_6032" x1="17.9517" y1="44.8479" x2="17.9566" y2="43.6708" gradientUnits="userSpaceOnUse"><stop stop-color="#FFCC0B"></stop><stop offset="1" stop-color="#FFBB00"></stop></linearGradient></defs></svg>