<svg xmlns="http://www.w3.org/2000/svg" width="137.092" height="31.409" viewBox="0 0 137.092 31.409"><g id="lightspeed" transform="translate(-0.525 -0.9)"><path id="Path_31719" data-name="Path 31719" d="M11.055.9,12.5,3.419a1.732,1.732,0,0,1,0,1.679L3.876,20.064l4.082,7.063a3.57,3.57,0,0,0,6.195,0l4.082-7.063-1.071-1.911-4.632,8.019a1.678,1.678,0,0,1-1.447.84,1.643,1.643,0,0,1-1.447-.84L6.076,20.064l8.019-13.9,1.447,2.519a1.732,1.732,0,0,1,0,1.679l-5.587,9.7,1.1,1.911,6.079-10.537,3.995,6.919a3.481,3.481,0,0,1,0,3.445l-4.053,7.034a6.955,6.955,0,0,1-12.042,0L.981,21.8a3.481,3.481,0,0,1,0-3.445L11.055.9" fill="#ed5153"></path><g id="Group_10598" data-name="Group 10598" transform="translate(29.9 8.137)"><path id="Path_31720" data-name="Path 31720" d="M0,1.8H2.808V18.387H0Z" transform="translate(0 -1.539)" fill="#040707"></path><circle id="Ellipse_870" data-name="Ellipse 870" cx="1.65" cy="1.65" r="1.65" transform="translate(4.921 0)" fill="#040707"></circle><path id="Path_31721" data-name="Path 31721" d="M17.8,6.795h2.837V18.316H17.8Zm10.277-.289a5.616,5.616,0,0,0-5.819,5.848c0,3.59,2.258,5.79,5.848,5.79,1.418,0,2.924.724,2.924,2.316s-1.274,2.49-2.924,2.49-3.011-.984-3.011-2.49H22.258c0,3.1,2.49,5.153,5.848,5.153,3.329,0,5.761-1.968,5.761-5.153a3.884,3.884,0,0,0-2.374-3.821,4.6,4.6,0,0,0,2.432-4.313,5.632,5.632,0,0,0-5.848-5.819Zm.029,9.292a3.182,3.182,0,0,1-3.011-3.445,3.226,3.226,0,0,1,3.011-3.474,3.223,3.223,0,0,1,2.982,3.474A3.2,3.2,0,0,1,28.106,15.8Zm14.04-9.292a4.317,4.317,0,0,0-3.59,1.708V1.7H35.719V18.287h2.837V12.44a2.932,2.932,0,0,1,2.837-3.126c1.505,0,2.605.9,2.605,2.982v5.992h2.837V12.092c.029-3.387-1.418-5.587-4.69-5.587Zm11.608,9.842A.972.972,0,0,1,52.943,16a1.807,1.807,0,0,1-.261-1.1V9.227H54.97l.261-2.461H52.712V3.611l-2.866.318V6.795H47.675V9.256h2.171v5.732a3.894,3.894,0,0,0,.84,2.692,3.186,3.186,0,0,0,2.461.926,4.994,4.994,0,0,0,1.447-.2,4.5,4.5,0,0,0,1.3-.608l-.984-1.824A2.036,2.036,0,0,1,53.754,16.348ZM65.42,12.121a8.021,8.021,0,0,0-3.85-.9c-.782-.058-1.968-.232-1.968-1.245,0-.724.753-1.129,2.113-1.129A3.972,3.972,0,0,1,64.58,9.863l1.592-1.853a6.256,6.256,0,0,0-4.516-1.505c-2.113,0-4.892.926-4.892,3.59A3.146,3.146,0,0,0,58.3,12.787a8.913,8.913,0,0,0,3.647.9c.811.087,2.142.289,1.911,1.418-.145.782-1.1,1.013-1.766,1.042a7.893,7.893,0,0,1-2.171-.2,6.915,6.915,0,0,1-2.026-.984l-1.447,1.824a1.353,1.353,0,0,1,.174.145,7.992,7.992,0,0,0,6.774,1.505,3.824,3.824,0,0,0,3.271-3.59,2.862,2.862,0,0,0-1.245-2.721Zm9.35-5.616a4.6,4.6,0,0,0-3.734,1.824l-.087-1.563H68.2V23.353l2.837-.318V16.956a4.617,4.617,0,0,0,3.792,1.65c3.676,0,5.819-2.75,5.819-6.079A5.74,5.74,0,0,0,74.77,6.505Zm-.232,9.64A3.421,3.421,0,0,1,71.3,12.585a3.493,3.493,0,0,1,3.242-3.705c2.055,0,3.242,1.94,3.242,3.705A3.4,3.4,0,0,1,74.539,16.145Zm9.813-2.576a3.446,3.446,0,0,0,3.59,2.547,4.988,4.988,0,0,0,3.1-1.187l1.824,1.795a7.158,7.158,0,0,1-4.95,1.853,5.828,5.828,0,0,1-6.195-6.05A5.92,5.92,0,0,1,87.71,6.505c3.474,0,6.369,2.374,6.079,7.063H84.352ZM91.039,11.4A3.45,3.45,0,0,0,87.71,8.85,3.5,3.5,0,0,0,84.352,11.4Zm6.455,2.171a3.446,3.446,0,0,0,3.59,2.547,4.988,4.988,0,0,0,3.1-1.187l1.824,1.795a7.158,7.158,0,0,1-4.95,1.853,5.828,5.828,0,0,1-6.195-6.05,5.92,5.92,0,0,1,5.992-6.021c3.474,0,6.369,2.374,6.079,7.063H97.495Zm6.716-2.171a3.45,3.45,0,0,0-3.329-2.547A3.5,3.5,0,0,0,97.524,11.4Zm9.582,7.208a4.6,4.6,0,0,0,3.734-1.824l.087,1.534h2.75V1.729h-2.837V8.155c-.811-1.245-2.605-1.621-3.821-1.621-3.676,0-5.79,2.721-5.79,6.079a5.732,5.732,0,0,0,5.876,5.992Zm.2-9.64a3.421,3.421,0,0,1,3.242,3.561A3.493,3.493,0,0,1,114,16.232c-2.055,0-3.242-1.94-3.242-3.705A3.421,3.421,0,0,1,114,8.966Z" transform="translate(-12.647 -1.468)" fill="#040707"></path></g></g></svg>