<svg xmlns="http://www.w3.org/2000/svg" xmlns:xlink="http://www.w3.org/1999/xlink" id="Group_10597" data-name="Group 10597" width="181.18" height="41.391" viewBox="0 0 181.18 41.391"><defs><clipPath id="clip-path"><rect id="Rectangle_2" data-name="Rectangle 2" width="181.18" height="41.391" fill="#fff"></rect></clipPath></defs><g id="Group_1" data-name="Group 1" clip-path="url(#clip-path)"><path id="Path_1" data-name="Path 1" d="M224.317,83.2a7.754,7.754,0,0,1-6.254,2.592,6.909,6.909,0,0,1-5.482-2.119,9.012,9.012,0,0,1-1.862-6.131V63.123h5V77.482q0,4.238,3.518,4.238,3.641,0,4.917-2.613V63.123h5V85.382h-4.711Z" transform="translate(-170.046 -50.939)" fill="#fff"></path><path id="Path_2" data-name="Path 2" d="M332.647,21.991a2.653,2.653,0,0,1,.73-1.913,2.759,2.759,0,0,1,2.088-.761,2.793,2.793,0,0,1,2.1.761,2.632,2.632,0,0,1,.741,1.913,2.572,2.572,0,0,1-.741,1.882,2.813,2.813,0,0,1-2.1.751,2.779,2.779,0,0,1-2.088-.751,2.592,2.592,0,0,1-.73-1.882m5.308,28.04h-5V27.772h5Z" transform="translate(-268.44 -15.588)" fill="#fff"></path><path id="Path_3" data-name="Path 3" d="M393.567,80.082a4.519,4.519,0,0,0,3.106-1.09A3.726,3.726,0,0,0,397.99,76.3H402.7a7.34,7.34,0,0,1-1.3,3.878,8.5,8.5,0,0,1-3.292,2.849,9.805,9.805,0,0,1-4.485,1.049,9.488,9.488,0,0,1-7.405-3.024q-2.737-3.024-2.736-8.352v-.514a11.794,11.794,0,0,1,2.716-8.136,9.4,9.4,0,0,1,7.406-3.055,9.146,9.146,0,0,1,6.47,2.314,8.291,8.291,0,0,1,2.623,6.079H397.99a4.578,4.578,0,0,0-1.306-3.148A4.2,4.2,0,0,0,393.567,65a4.4,4.4,0,0,0-3.744,1.759,8.971,8.971,0,0,0-1.337,5.338v.8a9.121,9.121,0,0,0,1.306,5.4,4.394,4.394,0,0,0,3.775,1.779" transform="translate(-309.467 -49.219)" fill="#fff"></path><path id="Path_4" data-name="Path 4" d="M509.864,36.787l-2.222,2.284v7.262h-5v-31.6h5V32.96l1.564-1.954,6.151-6.933h6.007l-8.27,9.278,9.155,12.981h-5.781Z" transform="translate(-405.624 -11.89)" fill="#fff"></path><path id="Path_5" data-name="Path 5" d="M615.557,79.045l4.711-15.923h5.163l-7.714,22.259h-4.34L605.6,63.122h5.184Z" transform="translate(-488.709 -50.939)" fill="#fff"></path><path id="Path_6" data-name="Path 6" d="M730.726,84.073a10.341,10.341,0,0,1-7.7-2.993,10.855,10.855,0,0,1-2.952-7.971v-.617a13.36,13.36,0,0,1,1.286-5.956,9.789,9.789,0,0,1,3.61-4.083,9.545,9.545,0,0,1,5.184-1.46,8.737,8.737,0,0,1,7.026,2.9q2.478,2.9,2.479,8.208v2.016H725.11a6.683,6.683,0,0,0,1.841,4.361,5.527,5.527,0,0,0,4.063,1.6,6.769,6.769,0,0,0,5.6-2.777l2.695,2.571a9,9,0,0,1-3.569,3.1,11.178,11.178,0,0,1-5.009,1.1M730.13,65a4.211,4.211,0,0,0-3.323,1.44,7.464,7.464,0,0,0-1.615,4.012h9.525v-.37a6.078,6.078,0,0,0-1.337-3.8A4.178,4.178,0,0,0,730.13,65" transform="translate(-581.083 -49.219)" fill="#fff"></path><path id="Path_7" data-name="Path 7" d="M847.859,84.073a10.341,10.341,0,0,1-7.7-2.993,10.856,10.856,0,0,1-2.952-7.971v-.617a13.358,13.358,0,0,1,1.286-5.956,9.787,9.787,0,0,1,3.61-4.083,9.546,9.546,0,0,1,5.184-1.46,8.736,8.736,0,0,1,7.025,2.9q2.479,2.9,2.479,8.208v2.016H842.242a6.681,6.681,0,0,0,1.841,4.361,5.527,5.527,0,0,0,4.063,1.6,6.769,6.769,0,0,0,5.6-2.777l2.695,2.571a9,9,0,0,1-3.569,3.1,11.179,11.179,0,0,1-5.009,1.1m-.6-19.07a4.21,4.21,0,0,0-3.322,1.44,7.462,7.462,0,0,0-1.615,4.012h9.525v-.37a6.08,6.08,0,0,0-1.337-3.8A4.178,4.178,0,0,0,847.262,65" transform="translate(-675.607 -49.219)" fill="#fff"></path><path id="Path_8" data-name="Path 8" d="M44,68.356a1.917,1.917,0,0,1-1.076-.33l-3.1-2.1a1.92,1.92,0,0,1,2.153-3.181L44,64.118l2-1.347a1.921,1.921,0,1,1,2.147,3.185l-3.074,2.072A1.92,1.92,0,0,1,44,68.356" transform="translate(-31.458 -50.369)" fill="#fff"></path><path id="Path_9" data-name="Path 9" d="M104.24,68.358a1.919,1.919,0,0,1-1.076-.33l-3.1-2.1a1.921,1.921,0,0,1,2.153-3.181l2.025,1.371,2-1.347a1.921,1.921,0,0,1,2.147,3.185l-3.073,2.072a1.92,1.92,0,0,1-1.073.328" transform="translate(-80.069 -50.371)" fill="#fff"></path><path id="Path_10" data-name="Path 10" d="M23.935,24.712,20.8,27.848l3.2,3.2a13.93,13.93,0,1,1,5.373-4.234l-.324.421,3.147,3.147.422-.523a18.411,18.411,0,1,0-5.32,4.487L32.652,39.7l3.136-3.136Z" fill="#fff"></path><rect id="Rectangle_1" data-name="Rectangle 1" width="4.435" height="1.31" transform="translate(33.416 40.465) rotate(-44.995)" fill="#fff"></rect><path id="Path_11" data-name="Path 11" d="M181.581,156.15a1.887,1.887,0,1,1-1.887-1.887,1.887,1.887,0,0,1,1.887,1.887" transform="translate(-143.486 -124.487)" fill="#fff"></path><path id="Path_12" data-name="Path 12" d="M192.037,177.6a1.115,1.115,0,1,1-1.115-1.115,1.115,1.115,0,0,1,1.115,1.115" transform="translate(-153.17 -142.42)" fill="#fff"></path><path id="Path_13" data-name="Path 13" d="M196.856,146.677a.858.858,0,1,1-.858-.858.858.858,0,0,1,.858.858" transform="translate(-157.474 -117.673)" fill="#fff"></path></g></svg>