<svg xmlns="http://www.w3.org/2000/svg" xmlns:xlink="http://www.w3.org/1999/xlink" width="88" height="88" viewBox="0 0 88 88"><defs><clipPath id="clip-path"><rect id="Rectangle_7168" data-name="Rectangle 7168" width="88" height="88" transform="translate(1246 1310)" fill="none" stroke="#707070" stroke-width="1"></rect></clipPath></defs><g id="Manager_Roles" data-name="Manager Roles" transform="translate(-1246 -1310)" clip-path="url(#clip-path)"><path id="path579" d="M-168.255-84.128a9.205,9.205,0,0,1-9.205,9.205,9.205,9.205,0,0,1-9.205-9.205,9.205,9.205,0,0,1,9.205-9.205A9.205,9.205,0,0,1-168.255-84.128Z" transform="translate(1467.26 1437.997)" fill="none" stroke="#000" stroke-linecap="round" stroke-linejoin="round" stroke-miterlimit="10" stroke-width="3"></path><path id="path583" d="M-435.267-440.851a5.283,5.283,0,0,0,7.184-1.985,5.24,5.24,0,0,0-1.993-7.156l-.163-.092a4.873,4.873,0,0,1-2.435-4.887,22.928,22.928,0,0,0,.212-3.116,22.888,22.888,0,0,0-.235-3.279,4.863,4.863,0,0,1,2.433-4.906l.188-.107a5.24,5.24,0,0,0,1.993-7.156,5.282,5.282,0,0,0-7.184-1.985l-.231.131a4.919,4.919,0,0,1-5.508-.466,22.729,22.729,0,0,0-5.78-3.368,4.906,4.906,0,0,1-3.1-4.552v-.053a5.26,5.26,0,0,0-5.26-5.26,5.26,5.26,0,0,0-5.26,5.26,4.906,4.906,0,0,1-3.124,4.562,22.725,22.725,0,0,0-5.844,3.377,4.92,4.92,0,0,1-5.5.456l-.151-.086a5.283,5.283,0,0,0-7.184,1.985,5.24,5.24,0,0,0,1.993,7.156l.042.024a4.9,4.9,0,0,1,2.453,4.954,22.87,22.87,0,0,0-.24,3.314,22.91,22.91,0,0,0,.221,3.177,4.869,4.869,0,0,1-2.434,4.895l-.041.023a5.241,5.241,0,0,0-1.993,7.156,5.283,5.283,0,0,0,7.184,1.985" transform="translate(1744.814 1812.055)" fill="none" stroke="#0a64f9" stroke-linecap="round" stroke-linejoin="round" stroke-miterlimit="10" stroke-width="3"></path><path id="path587" d="M0-122.586H0A13.412,13.412,0,0,1,13.36-136h2.474a13.412,13.412,0,0,1,13.36,13.414" transform="translate(1275.333 1507.622)" fill="none" stroke="#000" stroke-linecap="round" stroke-linejoin="round" stroke-miterlimit="10" stroke-width="3"></path></g></svg>