<svg xmlns="http://www.w3.org/2000/svg" xmlns:xlink="http://www.w3.org/1999/xlink" width="88" height="88" viewBox="0 0 88 88"><defs><clipPath id="clip-path"><rect id="Rectangle_6804" data-name="Rectangle 6804" width="88" height="88" transform="translate(296 971)" fill="none" stroke="#707070" stroke-width="1"></rect></clipPath><clipPath id="clip-path-2"><path id="path567" d="M0-682.665H61v61H0Z" transform="translate(0 682.665)"></path></clipPath></defs><g id="Mask_Group_6232" data-name="Mask Group 6232" transform="translate(-296 -971)" clip-path="url(#clip-path)"><g id="g561" transform="translate(309.5 1667.164)"><g id="g563" transform="translate(0 -682.665)"><g id="g565" transform="translate(0 0)" clip-path="url(#clip-path-2)"><g id="g571" transform="translate(2.383 35.266)"><path id="path573" d="M-134.776,0h-1.549A11.676,11.676,0,0,0-148,11.676h0a11.676,11.676,0,0,0,11.676,11.676h32.883A11.676,11.676,0,0,0-91.766,11.676h0A11.676,11.676,0,0,0-103.442,0h-1.191" transform="translate(148.001 0)" fill="none" stroke="#000" stroke-linecap="round" stroke-linejoin="round" stroke-width="3"></path></g><g id="g575" transform="translate(19.301 12.153)"><path id="path577" d="M-72.851-178.486h8.221a7.149,7.149,0,0,0,7.149-7.149v-3.217A7.149,7.149,0,0,0-64.63-196h-8.221A7.149,7.149,0,0,0-80-188.851v3.217A7.149,7.149,0,0,0-72.851-178.486Z" transform="translate(80 196)" fill="none" stroke="#000" stroke-linecap="round" stroke-linejoin="round" stroke-width="3"></path></g><g id="g579" transform="translate(25.854 2.383)"><path id="path581" d="M-97.135-99.563v-5a4.766,4.766,0,0,0-4.766-4.766,4.766,4.766,0,0,0-4.766,4.766v5" transform="translate(106.666 109.333)" fill="none" stroke="#000" stroke-linecap="round" stroke-linejoin="round" stroke-width="3"></path></g><g id="g583" transform="translate(11.438 17.991)"><path id="path585" d="M-194.271,0a2.979,2.979,0,0,0-2.979,2.979,2.979,2.979,0,0,0,2.979,2.979,2.979,2.979,0,0,0,2.979-2.979A2.979,2.979,0,0,0-194.271,0m16.084,25.973a2.979,2.979,0,0,0-2.979,2.979,2.979,2.979,0,0,0,2.979,2.979,2.979,2.979,0,0,0,2.979-2.979,2.979,2.979,0,0,0-2.979-2.979m-10.723,0a2.979,2.979,0,0,0-2.979,2.979,2.979,2.979,0,0,0,2.979,2.979,2.979,2.979,0,0,0,2.979-2.979,2.979,2.979,0,0,0-2.979-2.979m-21.446,0a2.979,2.979,0,0,0-2.979,2.979,2.979,2.979,0,0,0,2.979,2.979,2.978,2.978,0,0,0,2.979-2.979,2.978,2.978,0,0,0-2.979-2.979m13.7,2.979a2.979,2.979,0,0,1-2.979,2.979,2.979,2.979,0,0,1-2.979-2.979,2.979,2.979,0,0,1,2.979-2.979,2.979,2.979,0,0,1,2.979,2.979" transform="translate(213.334)" fill="#0a64f9"></path></g></g></g></g></g></svg>