<svg xmlns="http://www.w3.org/2000/svg" xmlns:xlink="http://www.w3.org/1999/xlink" width="88" height="88" viewBox="0 0 88 88"><defs><clipPath id="clip-path"><rect id="Rectangle_7167" data-name="Rectangle 7167" width="88" height="88" transform="translate(777 1294)" fill="none" stroke="#707070" stroke-width="1"></rect></clipPath><clipPath id="clip-path-2"><path id="path157" d="M0-682.665H61.335v61.335H0Z" transform="translate(0 682.665)"></path></clipPath></defs><g id="Mask_Group_6234" data-name="Mask Group 6234" transform="translate(-777 -1294)" clip-path="url(#clip-path)"><g id="g147" transform="translate(790.665 1990.998)"><g id="g149" transform="translate(28.272 -662.06)"><path id="path151" d="M-101.937,0-112,12.459" transform="translate(112)" fill="none" stroke="#000" stroke-linecap="round" stroke-linejoin="round" stroke-width="3"></path></g><g id="g153" transform="translate(0 -682.665)"><g id="g155" clip-path="url(#clip-path-2)"><g id="g161" transform="translate(2.396 7.188)"><path id="path163" d="M-524.2-257.269a25.876,25.876,0,0,0-25.871-25.4,25.876,25.876,0,0,0-25.876,25.876,25.876,25.876,0,0,0,25.876,25.876q.784,0,1.557-.046" transform="translate(575.951 282.666)" fill="none" stroke="#000" stroke-linecap="round" stroke-linejoin="round" stroke-width="3"></path></g><g id="g165" transform="translate(24.123 28.915)"><path id="path167" d="M0-22.518a4.149,4.149,0,0,1,4.149-4.149A4.149,4.149,0,0,1,8.3-22.518a4.149,4.149,0,0,1-4.149,4.149A4.149,4.149,0,0,1,0-22.518Z" transform="translate(0 26.667)"></path></g><g id="g169" transform="translate(25.876 0)"><path id="path171" d="M-48.541-72.812h-4.792V-77.6a2.4,2.4,0,0,1,2.4-2.4,2.4,2.4,0,0,1,2.4,2.4Z" transform="translate(53.333 80)"></path></g><g id="g173" transform="translate(46.121 4.073)"><path id="path175" d="M0,0,6.463,5.366" fill="none" stroke="#0a64f9" stroke-linecap="round" stroke-linejoin="round" stroke-width="3"></path></g><g id="g177" transform="translate(3.959 4.073)"><path id="path179" d="M-66.689,0l-6.583,5.366" transform="translate(73.272)" fill="none" stroke="#0a64f9" stroke-linecap="round" stroke-linejoin="round" stroke-width="3"></path></g><g id="g181" transform="translate(38.574 34.98)"><path id="path183" d="M-28.841-239.915l16.618-10.1a1.873,1.873,0,0,0,0-3.2l-16.618-10.1a1.874,1.874,0,0,0-2.847,1.6v20.207A1.874,1.874,0,0,0-28.841-239.915Z" transform="translate(31.688 263.598)" fill="none" stroke="#0a64f9" stroke-linecap="round" stroke-linejoin="round" stroke-width="3"></path></g></g></g></g></g></svg>