<svg xmlns="http://www.w3.org/2000/svg" xmlns:xlink="http://www.w3.org/1999/xlink" width="88" height="88" viewBox="0 0 88 88"><defs><clipPath id="clip-path"><rect id="Rectangle_7163" data-name="Rectangle 7163" width="88" height="88" transform="translate(1246 971)" fill="none" stroke="#707070" stroke-width="1"></rect></clipPath></defs><g id="Mask_Group_6231" data-name="Mask Group 6231" transform="translate(-1246 -971)" clip-path="url(#clip-path)"><g id="moving_1_" data-name="moving (1)" transform="translate(1220.349 970.761)"><g id="Group_10538" data-name="Group 10538" transform="translate(73.517 15.001)"><path id="Path_30706" data-name="Path 30706" d="M293.066,44.862s-11.2-12.489-11.2-18.663a11.2,11.2,0,0,1,22.4,0C304.263,32.373,293.066,44.862,293.066,44.862Z" transform="translate(-281.868 -15.001)" fill="#fff" stroke="#000" stroke-linecap="round" stroke-linejoin="round" stroke-width="3"></path><circle id="Ellipse_841" data-name="Ellipse 841" cx="3.733" cy="3.733" r="3.733" transform="matrix(0.162, -0.987, 0.987, 0.162, 6.908, 14.274)" fill="#fff" stroke="#0a64f9" stroke-linecap="round" stroke-linejoin="round" stroke-width="3"></circle></g><g id="Group_10539" data-name="Group 10539" transform="translate(44.652 43.617)"><path id="Path_30707" data-name="Path 30707" d="M55.85,280.032s-11.2-12.489-11.2-18.663a11.2,11.2,0,0,1,22.4,0C67.048,267.543,55.85,280.032,55.85,280.032Z" transform="translate(-44.652 -250.171)" fill="#fff" stroke="#000" stroke-linecap="round" stroke-linejoin="round" stroke-width="3"></path><circle id="Ellipse_842" data-name="Ellipse 842" cx="3.733" cy="3.733" r="3.733" transform="translate(5.919 11.198) rotate(-45)" fill="#fff" stroke="#0a64f9" stroke-linecap="round" stroke-linejoin="round" stroke-width="3"></circle></g><path id="Path_30708" data-name="Path 30708" d="M165.54,260.4h7.373a3.794,3.794,0,0,1,3.794,3.794h0a3.794,3.794,0,0,1-3.794,3.794H160.637a5.423,5.423,0,0,0-5.423,5.423h0a5.423,5.423,0,0,0,5.423,5.423h4.513a5.091,5.091,0,0,1,5.092,5.092h0a5.091,5.091,0,0,1-5.092,5.091H136.675" transform="translate(-80.825 -215.534)" fill="none" stroke="#000" stroke-linecap="round" stroke-linejoin="round" stroke-width="3"></path></g></g></svg>