<svg xmlns="http://www.w3.org/2000/svg" width="158.743" height="23.558" viewBox="0 0 158.743 23.558"><g id="Group_9706" data-name="Group 9706" transform="translate(0)"><path id="star" d="M24.054,11.723a1.763,1.763,0,0,0-.978-3.008L17.123,7.85a.778.778,0,0,1-.586-.426L13.875,2.03a1.763,1.763,0,0,0-3.162,0L8.051,7.424a.778.778,0,0,1-.586.426l-5.954.865a1.763,1.763,0,0,0-.978,3.008l4.308,4.2a.78.78,0,0,1,.225.689L4.049,22.54a1.726,1.726,0,0,0,.385,1.43,1.782,1.782,0,0,0,2.174.429l5.324-2.8a.8.8,0,0,1,.725,0l5.325,2.8a1.745,1.745,0,0,0,.82.205,1.768,1.768,0,0,0,1.353-.634,1.726,1.726,0,0,0,.385-1.43l-1.017-5.929a.779.779,0,0,1,.225-.689Z" transform="translate(0.001 -1.047)" fill="#f9c10a"></path><path id="star-2" data-name="star" d="M24.054,11.723a1.763,1.763,0,0,0-.978-3.008L17.123,7.85a.778.778,0,0,1-.586-.426L13.875,2.03a1.763,1.763,0,0,0-3.162,0L8.051,7.424a.778.778,0,0,1-.586.426l-5.954.865a1.763,1.763,0,0,0-.978,3.008l4.308,4.2a.78.78,0,0,1,.225.689L4.049,22.54a1.726,1.726,0,0,0,.385,1.43,1.782,1.782,0,0,0,2.174.429l5.324-2.8a.8.8,0,0,1,.725,0l5.325,2.8a1.745,1.745,0,0,0,.82.205,1.768,1.768,0,0,0,1.353-.634,1.726,1.726,0,0,0,.385-1.43l-1.017-5.929a.779.779,0,0,1,.225-.689Z" transform="translate(33.539 -1.047)" fill="#f9c10a"></path><path id="star-3" data-name="star" d="M24.054,11.723a1.763,1.763,0,0,0-.978-3.008L17.123,7.85a.778.778,0,0,1-.586-.426L13.875,2.03a1.763,1.763,0,0,0-3.162,0L8.051,7.424a.778.778,0,0,1-.586.426l-5.954.865a1.763,1.763,0,0,0-.978,3.008l4.308,4.2a.78.78,0,0,1,.225.689L4.049,22.54a1.726,1.726,0,0,0,.385,1.43,1.782,1.782,0,0,0,2.174.429l5.324-2.8a.8.8,0,0,1,.725,0l5.325,2.8a1.745,1.745,0,0,0,.82.205,1.768,1.768,0,0,0,1.353-.634,1.726,1.726,0,0,0,.385-1.43l-1.017-5.929a.779.779,0,0,1,.225-.689Z" transform="translate(67.077 -1.047)" fill="#f9c10a"></path><path id="star-4" data-name="star" d="M24.054,11.723a1.763,1.763,0,0,0-.978-3.008L17.123,7.85a.778.778,0,0,1-.586-.426L13.875,2.03a1.763,1.763,0,0,0-3.162,0L8.051,7.424a.778.778,0,0,1-.586.426l-5.954.865a1.763,1.763,0,0,0-.978,3.008l4.308,4.2a.78.78,0,0,1,.225.689L4.049,22.54a1.726,1.726,0,0,0,.385,1.43,1.782,1.782,0,0,0,2.174.429l5.324-2.8a.8.8,0,0,1,.725,0l5.325,2.8a1.745,1.745,0,0,0,.82.205,1.768,1.768,0,0,0,1.353-.634,1.726,1.726,0,0,0,.385-1.43l-1.017-5.929a.779.779,0,0,1,.225-.689Z" transform="translate(100.616 -1.047)" fill="#f9c10a"></path><path id="star-5" data-name="star" d="M24.054,11.723a1.763,1.763,0,0,0-.978-3.008L17.123,7.85a.778.778,0,0,1-.586-.426L13.875,2.03a1.763,1.763,0,0,0-3.162,0L8.051,7.424a.778.778,0,0,1-.586.426l-5.954.865a1.763,1.763,0,0,0-.978,3.008l4.308,4.2a.78.78,0,0,1,.225.689L4.049,22.54a1.726,1.726,0,0,0,.385,1.43,1.782,1.782,0,0,0,2.174.429l5.324-2.8a.8.8,0,0,1,.725,0l5.325,2.8a1.745,1.745,0,0,0,.82.205,1.768,1.768,0,0,0,1.353-.634,1.726,1.726,0,0,0,.385-1.43l-1.017-5.929a.779.779,0,0,1,.225-.689Z" transform="translate(134.155 -1.047)" fill="#f9c10a"></path></g></svg>