<svg xmlns="http://www.w3.org/2000/svg" width="21" height="20" viewBox="0 0 21 20" fill="none"><path d="M16.9633 20.001L3.4313 19.944C2.5811 19.9403 1.76716 19.5991 1.16841 18.9955C0.569665 18.3919 0.235114 17.5752 0.238304 16.725L0.294304 3.195C0.29801 2.3447 0.63914 1.53066 1.24274 0.931752C1.84633 0.332846 2.66301 -0.00192815 3.5133 0.000995553L17.0453 0.0559956C17.8955 0.0597011 18.7094 0.400864 19.3082 1.00449C19.9069 1.60811 20.2415 2.42479 20.2383 3.275L20.1823 16.807C20.1789 17.6574 19.8378 18.4716 19.2342 19.0705C18.6305 19.6695 17.8137 20.0042 16.9633 20.001Z" fill="#35A437"></path><path d="M8.2012 14.1439C8.04686 14.1439 7.89405 14.1133 7.7516 14.0539C7.60914 13.9945 7.47985 13.9075 7.3712 13.7979L4.6712 11.0739C4.46897 10.8512 4.3604 10.5591 4.36806 10.2583C4.37572 9.9576 4.49902 9.67139 4.71232 9.45925C4.92563 9.24711 5.2125 9.12536 5.51328 9.11934C5.81406 9.11332 6.10558 9.22349 6.3272 9.42692L8.2092 11.3269L14.3702 5.21592C14.4787 5.10515 14.6081 5.01705 14.7509 4.95676C14.8937 4.89647 15.0471 4.8652 15.2021 4.86475C15.3572 4.86431 15.5107 4.8947 15.6539 4.95417C15.7971 5.01364 15.927 5.101 16.0361 5.21115C16.1452 5.3213 16.2313 5.45205 16.2894 5.59579C16.3474 5.73953 16.3763 5.89339 16.3744 6.04841C16.3725 6.20343 16.3397 6.35651 16.278 6.49875C16.2164 6.64099 16.127 6.76954 16.0152 6.87692L9.0242 13.8059C8.80575 14.023 8.50914 14.1445 8.2012 14.1439Z" fill="white"></path></svg>