<svg xmlns="http://www.w3.org/2000/svg" xmlns:xlink="http://www.w3.org/1999/xlink" id="g3000" width="78" height="78" viewBox="0 0 78 78"><defs><clipPath id="clip-path"><path id="path3006" d="M0-682.665H78v78H0Z" transform="translate(0 682.665)" fill="#fff" stroke="#000" stroke-linecap="round" stroke-linejoin="round" stroke-width="1.333"></path></clipPath></defs><g id="g3002" transform="translate(0 0)"><g id="g3004" clip-path="url(#clip-path)"><g id="g3010" transform="translate(2.285 57.281)"><path id="path3012" d="M0,0H27.574a9.141,9.141,0,0,1,9.141,9.141" fill="none" stroke="#000" stroke-linecap="round" stroke-linejoin="round" stroke-width="3"></path></g><g id="g3014" transform="translate(39 57.281)"><path id="path3016" d="M0-70.859H0A9.141,9.141,0,0,1,9.141-80H36.715" transform="translate(0 80)" fill="none" stroke="#000" stroke-linecap="round" stroke-linejoin="round" stroke-width="3"></path></g><g id="g3018" transform="translate(20.719 41.285)"><path id="path3020" d="M0,0V4.57" fill="none" stroke="#000" stroke-linecap="round" stroke-width="3"></path></g><g id="g3022" transform="translate(16.148 23.004)"><path id="path3024" d="M-35.43-106.289c0-4.57,4.57-4.57,4.57-9.141A4.57,4.57,0,0,0-35.43-120a4.57,4.57,0,0,0-4.57,4.57" transform="translate(40 120)" fill="none" stroke="#000" stroke-linecap="round" stroke-linejoin="round" stroke-width="3"></path></g><g id="g3026" transform="translate(45.855 25.289)"><path id="path3028" d="M0,0H22.852" fill="none" stroke="#000" stroke-linecap="round" stroke-width="3"></path></g><g id="g3030" transform="translate(45.855 34.43)"><path id="path3032" d="M0,0H22.852" fill="none" stroke="#000" stroke-linecap="round" stroke-width="3"></path></g><g id="g3034" transform="translate(45.855 43.57)"><path id="path3036" d="M0,0H22.852" fill="none" stroke="#000" stroke-linecap="round" stroke-width="3"></path></g><g id="g3038" transform="translate(2.285 11.578)"><path id="path3040" d="M-569.236,0V54.844h-73.43V0h27.574a9.168,9.168,0,0,1,9.141,9.141A9.168,9.168,0,0,1-596.81,0Z" transform="translate(642.665)" fill="none" stroke="#000" stroke-linecap="round" stroke-linejoin="round" stroke-width="3"></path></g><g id="g3042" transform="translate(39 20.719)"><path id="path3044" d="M0,0V31.992" fill="none" stroke="#000" stroke-linecap="round" stroke-width="3"></path></g></g></g></svg>