<svg xmlns="http://www.w3.org/2000/svg" xmlns:xlink="http://www.w3.org/1999/xlink" width="70" height="70" viewBox="0 0 70 70"><defs><clipPath id="clip-path"><rect id="Rectangle_6837" data-name="Rectangle 6837" width="70" height="70" transform="translate(1051 2288)" fill="none" stroke="#707070" stroke-width="2.5"></rect></clipPath><clipPath id="clip-path-2"><path id="path2684" d="M0-682.665H55v55H0Z" transform="translate(0 682.665)"></path></clipPath></defs><g id="Mask_Group_6133" data-name="Mask Group 6133" transform="translate(-1051 -2288)" clip-path="url(#clip-path)"><g id="g2670" transform="translate(1058.5 2295.5)"><g id="g2672" transform="translate(8.057 38.135)"><path id="path2674" d="M0,0H6.445" fill="none" stroke="#0b64f9" stroke-linecap="round" stroke-linejoin="round" stroke-width="2.5"></path></g><g id="g2676" transform="translate(8.057 31.689)"><path id="path2678" d="M0,0H6.445" fill="none" stroke="#0b64f9" stroke-linecap="round" stroke-linejoin="round" stroke-width="2.5"></path></g><g id="g2680" transform="translate(0 0)"><g id="g2682" clip-path="url(#clip-path-2)"><g id="g2688" transform="translate(18.799 1.611)"><path id="path2690" d="M-12.259,0h6.445L-4.74,8.594h-8.594Z" transform="translate(13.333)" fill="none" stroke="#000" stroke-linecap="round" stroke-linejoin="round" stroke-width="2.5"></path></g></g></g><g id="g2692" transform="translate(18.799 10.205)"><path id="path2694" d="M0,0H8.594V10.742L4.3,7.52,0,10.742Z" fill="none" stroke="#000" stroke-linecap="round" stroke-linejoin="round" stroke-width="2.5"></path></g><g id="g2696" transform="translate(0 0)"><g id="g2698" clip-path="url(#clip-path-2)"><g id="g2704" transform="translate(27.607 27.607)"><path id="path2706" d="M-294.218-147.109a12.891,12.891,0,0,1-12.891,12.891A12.891,12.891,0,0,1-320-147.109,12.891,12.891,0,0,1-307.109-160,12.891,12.891,0,0,1-294.218-147.109Z" transform="translate(319.999 160)" fill="none" stroke="#000" stroke-linecap="round" stroke-linejoin="round" stroke-width="2.5"></path></g><g id="g2708" transform="translate(1.611 1.611)"><path id="path2710" d="M-490.363-304.205v-18.063l-3.223-8.594h-36.523l-3.223,8.594v34.375h26.656" transform="translate(533.332 330.862)" fill="none" stroke="#000" stroke-linecap="round" stroke-linejoin="round" stroke-width="2.5"></path></g><g id="g2712" transform="translate(36.415 37.681)"><path id="path2714" d="M-147.4,0l-5.443,5.443-2.721-2.721" transform="translate(155.564)" fill="none" stroke="#0b64f9" stroke-linecap="round" stroke-linejoin="round" stroke-width="2.5"></path></g><g id="g2716" transform="translate(1.611 10.205)"><path id="path2718" d="M-490.363,0h-42.969" transform="translate(533.332)" fill="none" stroke="#000" stroke-linecap="round" stroke-linejoin="round" stroke-width="2.5"></path></g></g></g></g></g></svg>