<svg xmlns="http://www.w3.org/2000/svg" xmlns:xlink="http://www.w3.org/1999/xlink" width="70" height="70" viewBox="0 0 70 70"><defs><clipPath id="clip-path"><rect id="Rectangle_4724" data-name="Rectangle 4724" width="70" height="70" transform="translate(0 0.338)" fill="none" stroke="#707070" stroke-width="2.5"></rect></clipPath></defs><g id="Mask_Group_4747" data-name="Mask Group 4747" transform="translate(0 -0.338)" clip-path="url(#clip-path)"><g id="_21_1_" data-name="21 (1)" transform="translate(8.775 8.775)"><ellipse id="Ellipse_755" data-name="Ellipse 755" cx="26" cy="26.5" rx="26" ry="26.5" transform="translate(0.225 -0.438)" fill="none" stroke="#000" stroke-linecap="round" stroke-linejoin="round" stroke-width="2.5"></ellipse><g id="Group_9936" data-name="Group 9936" transform="translate(12.293 18.599)"><g id="Group_9930" data-name="Group 9930" transform="translate(20.132 2.818)"><line id="Line_1010" data-name="Line 1010" y2="9.778" transform="translate(4.947)" fill="none" stroke="#0a64f9" stroke-linecap="round" stroke-linejoin="round" stroke-width="2.5"></line><line id="Line_1011" data-name="Line 1011" x1="9.778" transform="translate(0 4.831)" fill="none" stroke="#0a64f9" stroke-linecap="round" stroke-linejoin="round" stroke-width="2.5"></line></g><g id="Group_9935" data-name="Group 9935" transform="translate(0 0)"><g id="Group_9934" data-name="Group 9934"><g id="Group_9933" data-name="Group 9933"><g id="Group_9931" data-name="Group 9931" transform="translate(11.662 0.146)"><path id="Path_30475" data-name="Path 30475" d="M226.936,170.358h3.191v15.078" transform="translate(-226.936 -170.358)" fill="none" stroke="#0a64f9" stroke-linecap="round" stroke-linejoin="round" stroke-width="2.5"></path></g><g id="Group_9932" data-name="Group 9932"><path id="Path_30476" data-name="Path 30476" d="M103.761,183.9s-7.265.091-7.609-.023.552-.721,5.315-7.526a9.612,9.612,0,0,0,1.587-3.242l.074-.578a3.821,3.821,0,0,0-7.57-.741" transform="translate(-95.558 -168.712)" fill="none" stroke="#0a64f9" stroke-linecap="round" stroke-linejoin="round" stroke-width="2.5"></path></g></g></g></g></g></g></g></svg>