<svg xmlns="http://www.w3.org/2000/svg" xmlns:xlink="http://www.w3.org/1999/xlink" width="70" height="70" viewBox="0 0 70 70"><defs><clipPath id="clip-path"><rect id="Rectangle_6838" data-name="Rectangle 6838" width="70" height="70" transform="translate(1051 2414)" fill="none" stroke="#707070" stroke-width="2.5"></rect></clipPath></defs><g id="Mask_Group_6132" data-name="Mask Group 6132" transform="translate(-1051 -2414)" clip-path="url(#clip-path)"><g id="g2328" transform="translate(1055.166 3101.855)"><g id="g2330" transform="translate(18.844 -645.677)"><path id="path2332" d="M-159.044,0h-14.942" transform="translate(173.986)" fill="none" stroke="#0a64f9" stroke-linecap="round" stroke-linejoin="round" stroke-width="2.5"></path></g><g id="g2334" transform="translate(18.844 -654.891)"><path id="path2336" d="M-45.358,0H-49.62" transform="translate(49.62)" fill="none" stroke="#0a64f9" stroke-linecap="round" stroke-linejoin="round" stroke-width="2.5"></path></g><g id="g2338" transform="translate(18.844 -636.463)"><path id="path2340" d="M-159.044,0h-14.942" transform="translate(173.986)" fill="none" stroke="#0a64f9" stroke-linecap="round" stroke-linejoin="round" stroke-width="2.5"></path></g><g id="g2342" transform="translate(8.223 -679.878)"><g id="Group_10179" data-name="Group 10179" transform="translate(0 0)"><g id="g2350" transform="translate(23.467 12.503)"><path id="path2352" d="M0-59.748a6.87,6.87,0,0,0,6.87,6.87h5.613L0-65.361Z" transform="translate(0 65.361)" fill="none" stroke="#000" stroke-linecap="round" stroke-linejoin="round" stroke-width="2.5"></path></g><g id="g2354" transform="translate(10.147)"><path id="path2356" d="M0-35.362a6.867,6.867,0,0,1,5.885-3.322h22.21a6.871,6.871,0,0,1,6.87,6.87V-2.84" transform="translate(0 38.684)" fill="none" stroke="#000" stroke-linecap="round" stroke-linejoin="round" stroke-width="2.5"></path></g><g id="g2358" transform="translate(0 12.503)"><path id="path2360" d="M-382.659-248.433v-10.856l-12.484-12.484h-16.6a6.871,6.871,0,0,0-6.87,6.87v27.8a6.871,6.871,0,0,0,6.87,6.87h22.21a6.871,6.871,0,0,0,6.87-6.868" transform="translate(418.61 271.773)" fill="none" stroke="#000" stroke-linecap="round" stroke-linejoin="round" stroke-width="2.5"></path></g></g></g></g></g></svg>