<svg xmlns="http://www.w3.org/2000/svg" xmlns:xlink="http://www.w3.org/1999/xlink" width="70" height="70" viewBox="0 0 70 70"><defs><clipPath id="clip-path"><rect id="Rectangle_4722" data-name="Rectangle 4722" width="70" height="70" transform="translate(0.203 -0.394)" fill="none" stroke="#707070" stroke-width="2.5"></rect></clipPath></defs><g id="Mask_Group_4746" data-name="Mask Group 4746" transform="translate(-0.203 0.394)" clip-path="url(#clip-path)"><g id="Inventory" transform="translate(13.488 7.688)"><path id="Path_30478" data-name="Path 30478" d="M34.448,97.062H27.224A7.125,7.125,0,0,1,20,90.041V83.021A7.125,7.125,0,0,1,27.224,76h7.224a7.125,7.125,0,0,1,7.224,7.021v7.021A7.125,7.125,0,0,1,34.448,97.062Z" transform="translate(-20 -54.938)" fill="none" stroke="#000" stroke-linecap="round" stroke-linejoin="round" stroke-width="2.5"></path><path id="Path_30486" data-name="Path 30486" d="M34.448,97.062H27.224A7.125,7.125,0,0,1,20,90.041V83.021A7.125,7.125,0,0,1,27.224,76h7.224a7.125,7.125,0,0,1,7.224,7.021v7.021A7.125,7.125,0,0,1,34.448,97.062Z" transform="translate(1.673 -54.938)" fill="none" stroke="#000" stroke-linecap="round" stroke-linejoin="round" stroke-width="2.5"></path><path id="Path_30483" data-name="Path 30483" d="M34.448,97.062H27.224A7.125,7.125,0,0,1,20,90.041V83.021A7.125,7.125,0,0,1,27.224,76h7.224a7.125,7.125,0,0,1,7.224,7.021v7.021A7.125,7.125,0,0,1,34.448,97.062Z" transform="translate(-9.525 -76)" fill="none" stroke="#000" stroke-linecap="round" stroke-linejoin="round" stroke-width="2.5"></path><path id="Path_30479" data-name="Path 30479" d="M107.224,156h0a3.562,3.562,0,0,1-3.612,3.51h0A3.562,3.562,0,0,1,100,156h0" transform="translate(-92.776 -127.917)" fill="none" stroke="#0a64f9" stroke-linecap="round" stroke-linejoin="round" stroke-width="2.5"></path><path id="Path_30485" data-name="Path 30485" d="M107.224,156h0a3.562,3.562,0,0,1-3.612,3.51h0A3.562,3.562,0,0,1,100,156h0" transform="translate(-71.103 -127.917)" fill="none" stroke="#0a64f9" stroke-linecap="round" stroke-linejoin="round" stroke-width="2.5"></path><path id="Path_30484" data-name="Path 30484" d="M107.224,156h0a3.562,3.562,0,0,1-3.612,3.51h0A3.562,3.562,0,0,1,100,156h0" transform="translate(-82.301 -148.979)" fill="none" stroke="#0a64f9" stroke-linecap="round" stroke-linejoin="round" stroke-width="2.5"></path><path id="Path_30482" data-name="Path 30482" d="M59.01,316h-35.4a3.512,3.512,0,1,0,0,7.021h3.612a3.614,3.614,0,0,0,7.224,0H48.174a3.614,3.614,0,0,0,7.224,0H59.01a3.512,3.512,0,1,0,0-7.021Z" transform="translate(-20 -273.876)" fill="none" stroke="#000" stroke-linecap="round" stroke-linejoin="round" stroke-width="2.5"></path></g></g></svg>