<svg xmlns="http://www.w3.org/2000/svg" xmlns:xlink="http://www.w3.org/1999/xlink" width="70" height="70" viewBox="0 0 70 70"><defs><clipPath id="clip-path"><rect id="Rectangle_6805" data-name="Rectangle 6805" width="70" height="70" transform="translate(0.203 -0.362)" fill="none" stroke="#707070" stroke-width="2.5"></rect></clipPath><clipPath id="clip-path-2"><path id="path1266" d="M0-682.665H58.405v57.583H0Z" transform="translate(0 682.665)"></path></clipPath></defs><g id="Mask_Group_6119" data-name="Mask Group 6119" transform="translate(-0.203 0.362)" clip-path="url(#clip-path)"><g id="g1260" transform="translate(5.584 5.501)"><g id="g1262"><g id="g1264" clip-path="url(#clip-path-2)"><g id="g1270" transform="translate(46.998 15.295)"><path id="path1272" d="M-97.541-48.835a4.531,4.531,0,0,1-4.563,4.5,4.531,4.531,0,0,1-4.563-4.5,4.531,4.531,0,0,1,4.563-4.5A4.531,4.531,0,0,1-97.541-48.835Z" transform="translate(106.666 53.333)" fill="none" stroke="#000" stroke-linecap="round" stroke-linejoin="round" stroke-width="2.5"></path></g><g id="g1274" transform="translate(2.281 15.295)"><path id="path1276" d="M-97.541-48.835a4.531,4.531,0,0,1-4.563,4.5,4.531,4.531,0,0,1-4.563-4.5,4.531,4.531,0,0,1,4.563-4.5A4.531,4.531,0,0,1-97.541-48.835Z" transform="translate(106.666 53.333)" fill="none" stroke="#000" stroke-linecap="round" stroke-linejoin="round" stroke-width="2.5"></path></g><g id="g1278" transform="translate(24.64 6.298)"><path id="path1280" d="M-97.541-48.835a4.531,4.531,0,0,1-4.563,4.5,4.531,4.531,0,0,1-4.563-4.5,4.531,4.531,0,0,1,4.563-4.5A4.531,4.531,0,0,1-97.541-48.835Z" transform="translate(106.666 53.333)" fill="none" stroke="#000" stroke-linecap="round" stroke-linejoin="round" stroke-width="2.5"></path></g><g id="g1282" transform="translate(17.795 31.041)"><path id="path1284" d="M-48.77-24.417a2.266,2.266,0,0,1-2.281,2.249,2.266,2.266,0,0,1-2.281-2.249,2.266,2.266,0,0,1,2.281-2.249,2.266,2.266,0,0,1,2.281,2.249" transform="translate(53.333 26.667)" fill="#0a64f9"></path></g><g id="g1286" transform="translate(26.921 31.041)"><path id="path1288" d="M-48.77-24.417a2.266,2.266,0,0,1-2.281,2.249,2.266,2.266,0,0,1-2.281-2.249,2.266,2.266,0,0,1,2.281-2.249,2.266,2.266,0,0,1,2.281,2.249" transform="translate(53.333 26.667)" fill="#0a64f9"></path></g><g id="g1290" transform="translate(36.047 31.041)"><path id="path1292" d="M-48.77-24.417a2.266,2.266,0,0,1-2.281,2.249,2.266,2.266,0,0,1-2.281-2.249,2.266,2.266,0,0,1,2.281-2.249,2.266,2.266,0,0,1,2.281,2.249" transform="translate(53.333 26.667)" fill="#0a64f9"></path></g><g id="g1294" transform="translate(6.844 42.287)"><path id="path1296" d="M0,0H44.717" fill="none" stroke="#000" stroke-linecap="round" stroke-linejoin="round" stroke-width="2.5"></path></g><path id="path1298" d="M168.924-172.336H133.333v-9h35.591Z" transform="translate(-121.926 223.62)" fill="none" stroke="#000" stroke-linecap="round" stroke-linejoin="round" stroke-width="2.5"></path><g id="g1300" transform="translate(7.739 24.206)"><path id="path1302" d="M0,0,3.668,18.081" fill="none" stroke="#000" stroke-linecap="round" stroke-linejoin="round" stroke-width="2.5"></path></g><g id="g1304" transform="translate(46.998 24.206)"><path id="path1306" d="M-39.2,0l-3.668,18.081" transform="translate(42.872)" fill="none" stroke="#000" stroke-linecap="round" stroke-linejoin="round" stroke-width="2.5"></path></g><g id="g1308" transform="translate(10.641 14.821)"><path id="path1310" d="M0-81.073H0a10.084,10.084,0,0,0,14.752-3.982l1.768-3.486" transform="translate(0 88.541)" fill="none" stroke="#000" stroke-linecap="round" stroke-linejoin="round" stroke-width="2.5"></path></g><g id="g1312" transform="translate(31.244 14.821)"><path id="path1314" d="M0,0,1.768,3.486A10.084,10.084,0,0,0,16.52,7.468" fill="none" stroke="#000" stroke-linecap="round" stroke-linejoin="round" stroke-width="2.5"></path></g></g></g></g></g></svg>