<svg xmlns="http://www.w3.org/2000/svg" xmlns:xlink="http://www.w3.org/1999/xlink" width="32" height="32" viewBox="0 0 32 32"><defs><clipPath id="clip-path"><rect id="Rectangle_6826" data-name="Rectangle 6826" width="32" height="32" transform="translate(234 529)" fill="none" stroke="#707070" stroke-width="1"></rect></clipPath></defs><g id="Mask_Group_6129" data-name="Mask Group 6129" transform="translate(-234 -529)" clip-path="url(#clip-path)"><g id="Group_10177" data-name="Group 10177" transform="translate(236.034 531.032)"><g id="Group_10178" data-name="Group 10178"><path id="Path_30547" data-name="Path 30547" d="M58.019,142.238H53.053a10.093,10.093,0,1,1,0-20.185h0a10.1,10.1,0,0,1,9.978,8.565" transform="translate(-40.616 -115.394)" fill="none" stroke="#000" stroke-linecap="round" stroke-linejoin="round" stroke-width="2"></path><line id="Line_1498" data-name="Line 1498" x1="4.964" transform="translate(13.53 22.48)" fill="none" stroke="#0a64f9" stroke-linecap="round" stroke-linejoin="round" stroke-width="2"></line><line id="Line_1499" data-name="Line 1499" x1="2.237" transform="translate(17.348 18.116)" fill="none" stroke="#0a64f9" stroke-linecap="round" stroke-linejoin="round" stroke-width="2"></line><path id="Path_30548" data-name="Path 30548" d="M190.673,22.183a2.182,2.182,0,1,0-4.364,0" transform="translate(-176.144 -18.906)" fill="none" stroke="#000" stroke-linecap="round" stroke-linejoin="round" stroke-width="2"></path><line id="Line_1500" data-name="Line 1500" x1="2.728" y1="2.728" transform="translate(21.058 5.19)" fill="none" stroke="#000" stroke-linecap="round" stroke-linejoin="round" stroke-width="2"></line><line id="Line_1501" data-name="Line 1501" y1="2.728" x2="2.728" transform="translate(1.091 5.245)" fill="none" stroke="#000" stroke-linecap="round" stroke-linejoin="round" stroke-width="2"></line><line id="Line_1502" data-name="Line 1502" x2="0.002" y2="5.782" transform="translate(12.492 10.915)" fill="none" stroke="#000" stroke-linecap="round" stroke-linejoin="round" stroke-width="2"></line><path id="Path_30549" data-name="Path 30549" d="M210.063,287.995a1.091,1.091,0,1,0,1.091,1.091A1.091,1.091,0,0,0,210.063,287.995Z" transform="translate(-197.57 -272.281)" fill="none" stroke="#000" stroke-linecap="round" stroke-linejoin="round" stroke-width="2"></path><path id="Path_30550" data-name="Path 30550" d="M413.166,328.025l-2.94,2.947a.959.959,0,0,0,.64,1.636H413.5a.882.882,0,0,1,.642,1.521l-2.987,2.843" transform="translate(-387.578 -310.127)" fill="none" stroke="#0a64f9" stroke-linecap="round" stroke-linejoin="round" stroke-width="2"></path></g></g></g></svg>