<svg xmlns="http://www.w3.org/2000/svg" xmlns:xlink="http://www.w3.org/1999/xlink" width="88" height="88" viewBox="0 0 88 88"><defs><clipPath id="clip-path"><rect id="Rectangle_7505" data-name="Rectangle 7505" width="88" height="88" transform="translate(1239 1975)" fill="none" stroke="#707070" stroke-width="1"></rect></clipPath></defs><g id="Mask_Group_6316" data-name="Mask Group 6316" transform="translate(-1239 -1975)" clip-path="url(#clip-path)"><g id="Support_1_" transform="translate(1248 1984.785)"><path id="Path_30528" data-name="Path 30528" d="M37.143,234.858a5.714,5.714,0,0,1-5.714,5.714A11.429,11.429,0,0,1,20,229.143v-5.714A11.429,11.429,0,0,1,31.429,212a5.714,5.714,0,0,1,5.714,5.714Z" transform="translate(-20 -184.571)" fill="none" stroke="#000" stroke-linecap="round" stroke-linejoin="round" stroke-width="4"></path><path id="Path_30529" data-name="Path 30529" d="M100,47.429V37.143A17.143,17.143,0,0,1,117.143,20h11.429a17.143,17.143,0,0,1,17.143,17.143" transform="translate(-88.571 -20)" fill="none" stroke="#000" stroke-linecap="round" stroke-linejoin="round" stroke-width="4"></path><path id="Path_30530" data-name="Path 30530" d="M287.429,212a5.731,5.731,0,0,1,5.714,5.714v11.429a5.731,5.731,0,0,1-5.714,5.714H273.8a19.51,19.51,0,0,0-13.8,5.714V217.714A5.731,5.731,0,0,1,265.714,212Z" transform="translate(-225.714 -184.571)" fill="none" stroke="#0b64f9" stroke-linecap="round" stroke-linejoin="round" stroke-width="4"></path><path id="Path_30531" data-name="Path 30531" d="M122.858,423.429H108.572A8.572,8.572,0,0,1,100,414.857V412" transform="translate(-88.571 -355.999)" fill="none" stroke="#000" stroke-linecap="round" stroke-linejoin="round" stroke-width="4"></path><line id="Line_1478" data-name="Line 1478" x2="10.286" transform="translate(45.715 38.858)" fill="none" stroke="#0b64f9" stroke-linecap="round" stroke-linejoin="round" stroke-width="4"></line></g></g></svg>