<svg xmlns="http://www.w3.org/2000/svg" xmlns:xlink="http://www.w3.org/1999/xlink" width="88" height="88" viewBox="0 0 88 88"><defs><clipPath id="clip-path"><rect id="Rectangle_6804" data-name="Rectangle 6804" width="88" height="88" transform="translate(315 1942)" fill="none" stroke="#707070" stroke-width="1"></rect></clipPath><clipPath id="clip-path-2"><path id="path210" d="M0-682.665H64.229v64.229H0Z" transform="translate(0 682.665)" stroke="#707070" stroke-linecap="round" stroke-linejoin="round" stroke-width="1.333"></path></clipPath></defs><g id="Mask_Group_6120" data-name="Mask Group 6120" transform="translate(-315 -1942)" clip-path="url(#clip-path)"><g id="g204" transform="translate(326.865 2637.57)"><g id="g206" transform="translate(0 -682.665)"><g id="g208" clip-path="url(#clip-path-2)"><g id="g214" transform="translate(5.645 23.455)"><path id="path216" d="M0-374.476v-38.892" transform="translate(0 413.368)" fill="none" stroke="#000" stroke-linecap="round" stroke-width="4"></path></g><g id="g218" transform="translate(58.584 23.455)"><path id="path220" d="M0,0V38.892" fill="none" stroke="#000" stroke-linecap="round" stroke-width="4"></path></g></g></g><g id="g222" transform="translate(24.588 -646.912)"><path id="path224" d="M-72.473-72.473V-80H-80v7.527" transform="translate(80 80)" fill="none" stroke="#0b64f9" stroke-linecap="round" stroke-linejoin="round" stroke-width="4"></path></g><path id="path226" d="M261.333-211.125h15.054v-11.541H261.333Z" transform="translate(-236.745 -416.719)" fill="none" stroke="#0b64f9" stroke-linecap="round" stroke-linejoin="round" stroke-width="4"></path><g id="g228" transform="translate(0 -680.783)"><g id="Group_10134" data-name="Group 10134" transform="translate(0 0)"><g id="g236" transform="translate(1.882)"><path id="path238" d="M-582.2-144.946a7.549,7.549,0,0,1-7.527,7.527,7.656,7.656,0,0,1-7.652-7.527,7.549,7.549,0,0,1-7.527,7.527,7.548,7.548,0,0,1-7.527-7.527,7.549,7.549,0,0,1-7.527,7.527,7.548,7.548,0,0,1-7.527-7.527,7.658,7.658,0,0,1-7.652,7.527,7.548,7.548,0,0,1-7.527-7.527l3.763-7.527h11.416S-623.722-160-612.432-160s15.054,7.527,15.054,7.527h11.416Z" transform="translate(642.665 160)" fill="none" stroke="#000" stroke-linecap="round" stroke-linejoin="round" stroke-width="4"></path></g><g id="g240" transform="translate(1.882 15.054)"><path id="path242" d="M0,0H60.466" fill="none" stroke="#000" stroke-linecap="round" stroke-width="4"></path></g><g id="g244" transform="translate(26.47 7.527)"><path id="path246" d="M0,0H11.29" fill="none" stroke="#000" stroke-linecap="round" stroke-width="4"></path></g><g id="g248" transform="translate(28.351 28.226)"><path id="path250" d="M0,0V5.645" fill="none" stroke="#0b64f9" stroke-linecap="round" stroke-width="4"></path></g><g id="g252" transform="translate(0 60.466)"><path id="path254" d="M0,0H64.229" fill="none" stroke="#000" stroke-linecap="round" stroke-width="4"></path></g></g></g></g></g></svg>