<svg xmlns="http://www.w3.org/2000/svg" xmlns:xlink="http://www.w3.org/1999/xlink" width="88" height="88" viewBox="0 0 88 88"><defs><clipPath id="clip-path"><rect id="Rectangle_7507" data-name="Rectangle 7507" width="88" height="88" transform="translate(298 1974)" fill="none" stroke="#707070" stroke-width="1"></rect></clipPath><clipPath id="clip-path-2"><path id="path2684" d="M0-682.665H77.913v77.913H0Z" transform="translate(0 682.665)"></path></clipPath></defs><g id="Mask_Group_6315" data-name="Mask Group 6315" transform="translate(-298 -1974)" clip-path="url(#clip-path)"><g id="g2670" transform="translate(302.875 2661.69)"><g id="g2672" transform="translate(11.413 -628.643)"><path id="path2674" d="M0,0H9.13" fill="none" stroke="#0b64f9" stroke-linecap="round" stroke-linejoin="round" stroke-width="4"></path></g><g id="g2676" transform="translate(11.413 -637.774)"><path id="path2678" d="M0,0H9.13" fill="none" stroke="#0b64f9" stroke-linecap="round" stroke-linejoin="round" stroke-width="4"></path></g><g id="g2680" transform="translate(0 -682.665)"><g id="g2682" clip-path="url(#clip-path-2)"><g id="g2688" transform="translate(26.631 2.283)"><path id="path2690" d="M-11.812,0h9.13l1.522,12.174H-13.333Z" transform="translate(13.333)" fill="none" stroke="#000" stroke-linecap="round" stroke-linejoin="round" stroke-width="4"></path></g></g></g><g id="g2692" transform="translate(26.631 -668.208)"><path id="path2694" d="M0,0H12.174V15.217L6.087,10.652,0,15.217Z" fill="none" stroke="#000" stroke-linecap="round" stroke-linejoin="round" stroke-width="4"></path></g><g id="g2696" transform="translate(0 -682.665)"><g id="g2698" clip-path="url(#clip-path-2)"><g id="g2704" transform="translate(39.109 39.109)"><path id="path2706" d="M-283.477-141.739a18.261,18.261,0,0,1-18.261,18.261A18.261,18.261,0,0,1-320-141.739,18.261,18.261,0,0,1-301.738-160,18.261,18.261,0,0,1-283.477-141.739Z" transform="translate(319.999 160)" fill="none" stroke="#000" stroke-linecap="round" stroke-linejoin="round" stroke-width="4"></path></g><g id="g2708" transform="translate(2.283 2.283)"><path id="path2710" d="M-472.462-293.1v-25.588l-4.565-12.174h-51.739l-4.565,12.174v48.7h37.762" transform="translate(533.332 330.862)" fill="none" stroke="#000" stroke-linecap="round" stroke-linejoin="round" stroke-width="4"></path></g><g id="g2712" transform="translate(51.586 53.379)"><path id="path2714" d="M-144,0l-7.71,7.71-3.855-3.855" transform="translate(155.564)" fill="none" stroke="#0b64f9" stroke-linecap="round" stroke-linejoin="round" stroke-width="4"></path></g><g id="g2716" transform="translate(2.283 14.457)"><path id="path2718" d="M-472.462,0h-60.87" transform="translate(533.332)" fill="none" stroke="#000" stroke-linecap="round" stroke-linejoin="round" stroke-width="4"></path></g></g></g></g></g></svg>