<svg xmlns="http://www.w3.org/2000/svg" xmlns:xlink="http://www.w3.org/1999/xlink" width="88" height="88" viewBox="0 0 88 88"><defs><clipPath id="clip-path"><rect id="Rectangle_4724" data-name="Rectangle 4724" width="88" height="88" transform="translate(-0.291 -0.184)" fill="none" stroke="#707070" stroke-width="4"></rect></clipPath></defs><g id="Mask_Group_4747" data-name="Mask Group 4747" transform="translate(0.291 0.184)" clip-path="url(#clip-path)"><g id="_21_1_" data-name="21 (1)" transform="translate(-3.957 -3.851)"><circle id="Ellipse_760" data-name="Ellipse 760" cx="33" cy="33" r="33" transform="translate(14.665 14.667)" fill="none" stroke="#000" stroke-linecap="round" stroke-linejoin="round" stroke-width="4"></circle><g id="Group_10141" data-name="Group 10141" transform="translate(30.075 37.98)"><g id="Group_10135" data-name="Group 10135" transform="translate(25.235 3.532)"><line id="Line_1479" data-name="Line 1479" y2="12.257" transform="translate(6.201)" fill="none" stroke="#0a64f9" stroke-linecap="round" stroke-linejoin="round" stroke-width="4"></line><line id="Line_1480" data-name="Line 1480" x1="12.257" transform="translate(0 6.056)" fill="none" stroke="#0a64f9" stroke-linecap="round" stroke-linejoin="round" stroke-width="4"></line></g><g id="Group_10140" data-name="Group 10140" transform="translate(0 0)"><g id="Group_10139" data-name="Group 10139"><g id="Group_10138" data-name="Group 10138"><g id="Group_10136" data-name="Group 10136" transform="translate(14.619 0.183)"><path id="Path_30532" data-name="Path 30532" d="M226.936,170.358h4v18.9" transform="translate(-226.936 -170.358)" fill="none" stroke="#0a64f9" stroke-linecap="round" stroke-linejoin="round" stroke-width="4"></path></g><g id="Group_10137" data-name="Group 10137"><path id="Path_30533" data-name="Path 30533" d="M105.84,187.752s-9.106.114-9.538-.029.692-.9,6.662-9.434a12.049,12.049,0,0,0,1.99-4.063l.092-.724a4.79,4.79,0,0,0-9.489-.928" transform="translate(-95.558 -168.712)" fill="none" stroke="#0a64f9" stroke-linecap="round" stroke-linejoin="round" stroke-width="4"></path></g></g></g></g></g></g></g></svg>