<svg xmlns="http://www.w3.org/2000/svg" xmlns:xlink="http://www.w3.org/1999/xlink" width="88" height="88" viewBox="0 0 88 88"><defs><clipPath id="clip-path"><rect id="Rectangle_6805" data-name="Rectangle 6805" width="88" height="88" transform="translate(1270 1942)" fill="none" stroke="#707070" stroke-width="1"></rect></clipPath><clipPath id="clip-path-2"><path id="path1266" d="M0-682.665H73.211v73.211H0Z" transform="translate(0 682.665)"></path></clipPath></defs><g id="Mask_Group_6119" data-name="Mask Group 6119" transform="translate(-1270 -1942)" clip-path="url(#clip-path)"><g id="g1260" transform="translate(1277 1949)"><g id="g1262"><g id="g1264" clip-path="url(#clip-path-2)"><g id="g1270" transform="translate(58.912 19.447)"><path id="path1272" d="M-95.227-47.614a5.72,5.72,0,0,1-5.72,5.72,5.72,5.72,0,0,1-5.72-5.72,5.72,5.72,0,0,1,5.72-5.72A5.72,5.72,0,0,1-95.227-47.614Z" transform="translate(106.666 53.333)" fill="none" stroke="#000" stroke-linecap="round" stroke-linejoin="round" stroke-width="4"></path></g><g id="g1274" transform="translate(2.86 19.447)"><path id="path1276" d="M-95.227-47.614a5.72,5.72,0,0,1-5.72,5.72,5.72,5.72,0,0,1-5.72-5.72,5.72,5.72,0,0,1,5.72-5.72A5.72,5.72,0,0,1-95.227-47.614Z" transform="translate(106.666 53.333)" fill="none" stroke="#000" stroke-linecap="round" stroke-linejoin="round" stroke-width="4"></path></g><g id="g1278" transform="translate(30.886 8.007)"><path id="path1280" d="M-95.227-47.614a5.72,5.72,0,0,1-5.72,5.72,5.72,5.72,0,0,1-5.72-5.72,5.72,5.72,0,0,1,5.72-5.72A5.72,5.72,0,0,1-95.227-47.614Z" transform="translate(106.666 53.333)" fill="none" stroke="#000" stroke-linecap="round" stroke-linejoin="round" stroke-width="4"></path></g><g id="g1282" transform="translate(22.306 39.465)"><path id="path1284" d="M-47.614-23.807a2.86,2.86,0,0,1-2.86,2.86,2.86,2.86,0,0,1-2.86-2.86,2.86,2.86,0,0,1,2.86-2.86,2.86,2.86,0,0,1,2.86,2.86" transform="translate(53.333 26.667)" fill="#0a64f9"></path></g><g id="g1286" transform="translate(33.746 39.465)"><path id="path1288" d="M-47.614-23.807a2.86,2.86,0,0,1-2.86,2.86,2.86,2.86,0,0,1-2.86-2.86,2.86,2.86,0,0,1,2.86-2.86,2.86,2.86,0,0,1,2.86,2.86" transform="translate(53.333 26.667)" fill="#0a64f9"></path></g><g id="g1290" transform="translate(45.185 39.465)"><path id="path1292" d="M-47.614-23.807a2.86,2.86,0,0,1-2.86,2.86,2.86,2.86,0,0,1-2.86-2.86,2.86,2.86,0,0,1,2.86-2.86,2.86,2.86,0,0,1,2.86,2.86" transform="translate(53.333 26.667)" fill="#0a64f9"></path></g><g id="g1294" transform="translate(8.579 53.764)"><path id="path1296" d="M0,0H56.052" fill="none" stroke="#000" stroke-linecap="round" stroke-linejoin="round" stroke-width="4"></path></g><path id="path1298" d="M177.946-169.894H133.333v-11.439h44.613Z" transform="translate(-119.034 235.097)" fill="none" stroke="#000" stroke-linecap="round" stroke-linejoin="round" stroke-width="4"></path><g id="g1300" transform="translate(9.701 30.776)"><path id="path1302" d="M0,0,4.6,22.988" fill="none" stroke="#000" stroke-linecap="round" stroke-linejoin="round" stroke-width="4"></path></g><g id="g1304" transform="translate(58.912 30.776)"><path id="path1306" d="M-38.274,0l-4.6,22.988" transform="translate(42.872)" fill="none" stroke="#000" stroke-linecap="round" stroke-linejoin="round" stroke-width="4"></path></g><g id="g1308" transform="translate(13.339 18.844)"><path id="path1310" d="M0-79.046H0a12.552,12.552,0,0,0,18.492-5.063l2.216-4.433" transform="translate(0 88.541)" fill="none" stroke="#000" stroke-linecap="round" stroke-linejoin="round" stroke-width="4"></path></g><g id="g1312" transform="translate(39.164 18.844)"><path id="path1314" d="M0,0,2.216,4.433A12.552,12.552,0,0,0,20.708,9.5" fill="none" stroke="#000" stroke-linecap="round" stroke-linejoin="round" stroke-width="4"></path></g></g></g></g></g></svg>