<svg xmlns="http://www.w3.org/2000/svg" xmlns:xlink="http://www.w3.org/1999/xlink" width="88" height="88" viewBox="0 0 88 88"><defs><clipPath id="clip-path"><rect id="Rectangle_7506" data-name="Rectangle 7506" width="88" height="88" transform="translate(762 1975)" fill="none" stroke="#707070" stroke-width="1"></rect></clipPath></defs><g id="Mask_Group_6314" data-name="Mask Group 6314" transform="translate(-762 -1975)" clip-path="url(#clip-path)"><g id="fast-charge" transform="translate(755.002 1966.992)"><path id="Path_30535" data-name="Path 30535" d="M49.94,20H60.445m-5.384,8.01V20M20,64.778H34.313M20,54.273H38.253M20,75.283H30.374M74.889,28.667,72.657,31.5m9.323,20.4a27.1,27.1,0,0,0-51.765-7.616M40.682,78.041A28.277,28.277,0,0,0,63.6,80.667M59.143,58.459c1.926-2.139,6.423-16.4,6.423-16.4s-12.229,7.271-14.155,9.411a5.211,5.211,0,1,0,7.732,6.988Z" fill="none" stroke="#000" stroke-linecap="round" stroke-linejoin="round" stroke-width="4"></path><path id="Path_30536" data-name="Path 30536" d="M411.818,312l-5.967,10.919h10.233l-7,11.457" transform="translate(-335.184 -253.66)" fill="none" stroke="#0b64f9" stroke-linecap="round" stroke-linejoin="round" stroke-width="4"></path></g></g></svg>